<svg version="1.1" id="Ebene_1" xmlns="http://www.w3.org/2000/svg" xmlns:xlink="http://www.w3.org/1999/xlink" x="0px" y="0px"
	 width="100%" viewBox="0 0 510.879 63.262" enable-background="new 0 0 510.879 63.262"
	 xml:space="preserve">
<polygon fill="#245783" points="33.237,1.161 18.741,1.161 18.741,14.287 33.237,14.287 "/>
<polygon fill="#245783" points="33.237,21.475 18.741,21.475 18.741,34.601 33.237,34.601 "/>
<polygon fill="#245783" points="15.715,1.161 0,1.161 0,62.103 15.715,62.103 "/>
<polygon fill="#A9222A" points="67.692,1.161 51.391,1.161 69.5,62.103 85.846,62.103 "/>
<polygon fill="#A9222A" points="63.539,52.503 59.925,40.538 51.707,44.69 56.539,29.064 49.674,5.982 32.062,62.103 44.165,62.103 
	"/>
<polygon fill="#43A34F" points="123.011,1.161 120.257,6.429 126.76,22.858 138.141,1.161 "/>
<polygon fill="#43A34F" points="118.405,9.911 109.104,27.859 122.199,62.103 139.133,62.103 "/>
<polygon fill="#43A34F" points="107.928,1.161 92.213,1.161 92.213,62.103 107.928,62.103 "/>
<path fill="#FCC10A" d="M151.01,62.728c1.866,0.356,3.839,0.534,5.915,0.534c4.456,0,8.445-0.862,11.968-2.589
	c3.522-1.756,6.276-4.166,8.264-7.232c1.957-3.095,2.936-6.622,2.936-10.581c0-4.226-1.054-7.798-3.16-10.715
	c-2.168-2.945-5.722-5.744-10.658-8.393l-8.038,12.768c2.348,1.312,4.004,2.486,4.967,3.527c0.904,1.013,1.355,2.231,1.355,3.661
	c0,1.667-0.707,3.064-2.122,4.195c-1.416,1.133-3.223,1.697-5.419,1.697c-3.403,0-7.678-1.234-12.825-3.706l-1.039-0.536v15.226
	l1.039,0.356C146.75,61.774,149.023,62.369,151.01,62.728L151.01,62.728L151.01,62.728z"/>
<path fill="#FCC10A" d="M164.151,0c-2.619,0-5.148,0.343-7.587,1.026c-2.409,0.715-4.456,1.712-6.142,2.991
	c-1.626,1.191-2.996,2.545-4.109,4.063c-1.114,1.548-1.973,3.199-2.574,4.956c-0.602,1.785-0.903,3.557-0.903,5.312
	c0,4.554,1.687,8.409,5.059,11.563c0.873,0.804,1.896,1.606,3.07,2.41c1.265,0.863,2.829,1.802,4.696,2.812l7.948-12.724
	l-0.858-0.581c-1.716-1.132-2.83-2.023-3.342-2.68c-0.572-0.653-0.858-1.397-0.858-2.231c0-1.25,0.603-2.203,1.807-2.857
	c1.204-0.685,2.8-1.026,4.787-1.026c3.794,0,7.331,0.878,10.612,2.634V1.92C171.392,0.641,167.522,0,164.151,0L164.151,0L164.151,0z
	"/>
<polygon fill="#245783" points="210.891,17.278 195.175,17.278 195.175,62.103 210.891,62.103 "/>
<polygon fill="#245783" points="221.773,1.161 184.292,1.161 184.292,14.287 221.773,14.287 "/>
<polygon fill="#43A34F" points="272.847,1.161 257.132,1.161 257.132,62.103 272.847,62.103 "/>
<polygon fill="#43A34F" points="245.075,34.601 254.152,34.601 254.152,21.475 245.075,21.475 245.075,1.161 229.36,1.161 
	229.36,62.103 245.075,62.103 "/>
<polygon fill="#FCC10A" points="318.775,1.161 303.691,1.161 303.691,14.287 318.775,14.287 "/>
<polygon fill="#FCC10A" points="318.775,21.475 303.691,21.475 303.691,34.601 318.775,34.601 "/>
<polygon fill="#FCC10A" points="318.775,48.977 303.691,48.977 303.691,62.103 318.775,62.103 "/>
<polygon fill="#FCC10A" points="300.666,1.161 284.951,1.161 284.951,62.103 300.666,62.103 "/>
<polygon fill="#A9222A" points="360.14,1.161 343.838,1.161 361.945,62.103 378.292,62.103 "/>
<polygon fill="#A9222A" points="355.984,52.503 352.373,40.538 344.154,44.69 348.986,29.064 342.121,5.982 324.51,62.103 
	336.611,62.103 "/>
<polygon fill="#245783" points="402.318,17.278 386.603,17.278 386.603,62.103 402.318,62.103 "/>
<polygon fill="#245783" points="413.201,1.161 375.72,1.161 375.72,14.287 413.201,14.287 "/>
<polygon fill="#FCC10A" points="454.611,1.161 439.529,1.161 439.529,14.287 454.611,14.287 "/>
<polygon fill="#FCC10A" points="454.611,21.475 439.529,21.475 439.529,34.601 454.611,34.601 "/>
<polygon fill="#FCC10A" points="454.611,48.977 439.529,48.977 439.529,62.103 454.611,62.103 "/>
<polygon fill="#FCC10A" points="436.502,1.161 420.787,1.161 420.787,62.103 436.502,62.103 "/>
<path fill="#43A34F" d="M500.176,32.1c2.619-1.16,4.651-2.976,6.098-5.446c1.414-2.47,2.121-5.372,2.121-8.706
	c0-2.917-0.512-5.506-1.535-7.768c-1.022-2.262-2.529-4.181-4.516-5.759c-1.445-1.25-3.086-2.113-4.922-2.589
	c-1.746-0.446-4.308-0.67-7.679-0.67h-1.397h-3.523v13.126h1.58h0.859c1.836,0,3.1,0.253,3.793,0.759
	c0.662,0.536,0.992,1.503,0.992,2.901c0,1.966-0.781,3.097-2.349,3.395c-0.541,0.089-1.58,0.134-3.115,0.134h-1.762V34.02
	l9.439,28.083h16.617L500.176,32.1L500.176,32.1z"/>
<polygon fill="#43A34F" points="481.797,1.161 466.082,1.161 466.082,62.103 481.797,62.103 "/>
</svg>
